<?xml version="1.0" encoding="utf-8"?>
<!-- Generator: Adobe Illustrator 23.0.1, SVG Export Plug-In . SVG Version: 6.00 Build 0)  -->
<svg version="1.1" id="Layer_1" xmlns="http://www.w3.org/2000/svg" xmlns:xlink="http://www.w3.org/1999/xlink" x="0px" y="0px"
	 viewBox="0 0 460.1 104.6" style="enable-background:new 0 0 460.1 104.6;" xml:space="preserve">
<style type="text/css">
	.st0{fill:#FFFFFF;}
</style>
<title>logo-white</title>
<g>
	<path class="st0" d="M141.5,73.8v0.4c-0.3,6.7-6.1,12.2-13.2,12.2c-3.5,0-6.8-1.4-9.2-3.6c-2.4,2.2-5.6,3.6-9.2,3.6
		c-7.3,0-13.2-5.7-13.2-12.6v-0.3c0-0.1,0-0.2,0-0.3V57.1c0-2.2,1.8-4,4-4c2.2,0,4,1.8,4,4v16.2v0.3c0,0.1,0,0.1,0,0.3
		c0,2.5,2.3,4.6,5.2,4.6s5.2-2.1,5.2-4.6v-0.3c0-0.1,0-0.2,0-0.3V57.1c0-2.2,1.8-4,4-4c2.2,0,4,1.8,4,4v16.2v0.3c0,0.1,0,0.1,0,0.3
		c0,2.5,2.3,4.6,5.2,4.6s5.2-2.1,5.2-4.6V57c0-2.2,1.8-4,4-4c2.2,0,4,1.8,4,4V73.8z"/>
	<path class="st0" d="M180.9,71.6h-20.5c0.9,3.8,4.3,6.7,8.5,6.7c2.1,0,5.3-0.9,7-2.5c1.6-1.5,4.1-1.5,5.7,0.1
		c1.6,1.5,1.5,4.1-0.1,5.7c-3.7,3.5-8.8,4.7-12.6,4.7c-9.3,0-16.7-7.5-16.7-16.7c0-9.1,7.4-16.7,16.7-16.7c1,0,1.9,0.1,2.9,0.3
		c4.5,0.9,8.4,3.7,10.8,7.7c1.1,1.9,2.3,4.3,2.1,6.5c0,0.6-0.3,1.3-0.5,1.9C183.6,70.5,182.5,71.6,180.9,71.6z M161.5,64.9h14.1
		c-1.3-2.5-3.8-4-6.8-4C165.8,60.9,163.1,62.4,161.5,64.9z"/>
	<path class="st0" d="M209.2,82c0,2.3-1.8,4.1-4.1,4.1c-2.8,0-5.5-1.4-7.3-3.6c-2-2.6-1.9-5.5-1.9-8.7V53.9c0-4.8,0-9.6,0-14.4
		c0-2.2,1.8-4,4-4c2.3,0,4.1,1.8,4.1,4v36.2c0,0.2-0.1,0.4-0.1,0.6c0,0.2,0.1,0.4,0.1,0.6c0,0.6,0.5,1.1,1.1,1.1
		C207.4,78,209.2,79.8,209.2,82z"/>
	<path class="st0" d="M234.4,82c0,2.3-1.8,4.1-4.1,4.1c-2.8,0-5.5-1.4-7.3-3.6c-2-2.6-1.9-5.5-1.9-8.7V53.9c0-4.8,0-9.6,0-14.4
		c0-2.2,1.8-4,4-4c2.3,0,4.1,1.8,4.1,4v36.2c0,0.2-0.1,0.4-0.1,0.6c0,0.2,0.1,0.4,0.1,0.6c0,0.6,0.5,1.1,1.1,1.1
		C232.6,78,234.4,79.8,234.4,82z"/>
	<path class="st0" d="M261.4,86c-9.2,0-16.7-7.5-16.7-16.7c0-9.2,7.5-16.7,16.7-16.7c9.2,0,16.7,7.5,16.8,16.8
		C278.1,78.5,270.6,86,261.4,86z M261.4,60.7c-4.7,0-8.5,3.8-8.5,8.5c0,4.7,3.8,8.5,8.5,8.5c4.7,0,8.5-3.8,8.5-8.5
		C269.9,64.5,266.2,60.7,261.4,60.7z"/>
</g>
<g>
	<path class="st0" d="M312.1,85.8c-4.3,0-8.4-1.6-11.5-4.6c-3.1-3.1-5-7.2-5.1-11.7c-0.1-4.5,1.6-8.6,4.7-11.7
		c3.1-3.2,7.2-5,11.6-5.1c4.5,0,8.6,1.6,11.7,4.7c0.4,0.3,0.5,0.7,0.6,1.2c0,0.4-0.1,0.8-0.4,1.1c-0.4,0.4-0.8,0.6-1.3,0.6
		c-0.4,0-0.8-0.2-1.1-0.5c-2.5-2.4-5.8-3.7-9.4-3.7c-3.4,0-6.7,1.4-9.3,4c-2.5,2.7-3.8,6.1-3.7,9.5c0,3.4,1.5,6.9,4.1,9.2
		c2.4,2.4,5.6,3.7,9,3.7c3.5,0,6.7-1.2,9.2-3.5c0.3-0.3,0.7-0.5,1.1-0.5c0.5,0,0.9,0.2,1.2,0.5c0.3,0.3,0.5,0.7,0.5,1.2
		c0,0.5-0.2,0.9-0.6,1.3c-3,2.8-6.8,4.3-10.9,4.4H312.1z"/>
	<path class="st0" d="M351.7,54.7c2.1-1.1,4.3-1.6,6.7-1.6c8,0,14.5,6.5,14.5,14.5v17.1c0,0.9-0.7,1.7-1.7,1.7c-1,0-1.7-0.7-1.7-1.7
		V67.5c0-6.1-5-11.1-11.1-11.1c-6.1,0-11.1,5-11.1,11.1v17.1c0,0.9-0.8,1.7-1.7,1.7c-0.9,0-1.7-0.8-1.7-1.7V37.2
		c0-0.9,0.8-1.7,1.7-1.7c1,0,1.7,0.8,1.7,1.7v21.1C348.7,56.5,351,55.1,351.7,54.7z"/>
	<path class="st0" d="M421.6,77.9c-0.4,0.8-1.5,2.4-3.4,3.9c-3.2,2.6-6.7,3.9-10.5,3.9c-9.1,0-16.5-7.4-16.5-16.4
		c0-9.1,7.4-16.5,16.5-16.5c3.7,0,7.2,1.3,10.5,3.9c1.6,1.3,3,3.3,3.5,4.1l-0.1-6.8c0-0.8,0.4-1.5,1.4-1.5c0.9,0,1.3,0.6,1.3,1.5
		l0,30.6c0,0.8-0.4,1.5-1.3,1.5c-1,0-1.4-0.9-1.4-1.5L421.6,77.9z M407.7,56c-7.4,0-13.4,6-13.4,13.3c0,7.3,6,13.2,13.4,13.2
		c7.3,0,13.3-5.9,13.3-13.2C421,61.9,415,56,407.7,56z"/>
	<path class="st0" d="M450.9,55.5v21.6c0,0.2,0,0.5,0.1,0.7c0.1,1,0.2,2.5,1.5,3.6c1,1.1,2.6,1.1,3.1,1.1l0.5,0
		c0.9,0,1.7,0.7,1.7,1.7c0,1-0.7,1.7-1.7,1.7h-0.2c-0.5,0-1,0-1.5-0.1c-1.1-0.2-3.4-0.7-4.9-2.5c-1.1-1.3-1.9-3.4-1.9-5V55.5h-6.4
		c-0.9,0-1.7-0.7-1.7-1.7c0-0.9,0.7-1.7,1.7-1.7l6.4,0V37.1c0-0.9,0.7-1.7,1.7-1.7c0.9,0,1.7,0.7,1.7,1.7l0,15.1h5.6
		c0.9,0,1.7,0.7,1.7,1.7c0,0.9-0.7,1.7-1.7,1.7L450.9,55.5z"/>
</g>
<g>
	<g>
		<path class="st0" d="M31.2,24.6c0-3.7,0.7-7.3,1.9-10.6H13.6C7.3,14,2.1,19.1,2.1,25.5v47.9c0,6.4,5.2,11.5,11.5,11.5l24.5-0.1
			c5.1,0,10.1,1.6,14.2,4.7l16.4,12.3c1.7,1.3,4.2,0.1,4.2-2.1V53.2c-3.4,1.3-7.1,2.1-11,2.1C44.9,55.3,31.2,41.5,31.2,24.6z"/>
	</g>
	<circle class="st0" cx="61.9" cy="24.6" r="22.9"/>
</g>
</svg>
